<svg width="33" height="32" xmlns="http://www.w3.org/2000/svg" xmlns:xlink="http://www.w3.org/1999/xlink" version="1.1" id="Layer_1" x="0px" y="0px" width="100%" viewBox="0 0 1920 400" enable-background="new 0 0 1920 400" xml:space="preserve">

<path fill="#F9F9F9" opacity="1.000000" stroke="none" d=" M1011.367310,149.655365   C1024.177979,160.372131 1034.109985,172.583527 1037.424438,189.134842   C1037.718140,190.601807 1038.384277,192.170166 1038.105591,193.533722   C1037.707031,195.485031 1037.076050,198.053604 1035.656250,198.946335   C1034.208984,199.856400 1031.507080,199.547928 1029.682739,198.878555   C1027.564819,198.101562 1025.804932,196.350174 1023.888123,195.023865   C1012.559143,187.184738 984.543274,185.187302 970.520020,200.283279   C960.162964,211.432648 961.752197,231.674484 974.074951,240.476105   C987.481323,250.051620 1002.569031,253.089096 1018.628601,251.476120   C1031.204102,250.213043 1043.667603,247.744614 1056.254517,246.703949   C1075.657715,245.099731 1095.110962,243.877258 1114.567627,243.223907   C1128.274780,242.763611 1139.198975,249.498596 1148.073730,259.458893   C1154.950562,267.176758 1155.048950,276.418335 1148.307983,283.330627   C1147.519897,281.129883 1146.421875,279.282715 1146.248657,277.352570   C1145.716064,271.421448 1142.122559,267.616272 1137.635132,264.553192   C1130.750610,259.854065 1123.160034,257.243896 1114.663208,257.467926   C1086.129150,258.220398 1057.976318,262.218903 1029.776245,266.368164   C1008.203247,269.542358 986.962891,268.117401 967.917725,255.093597   C952.842102,244.784378 948.656799,230.123749 950.507446,213.232529   C952.472351,195.298370 964.146362,184.817184 980.165833,179.028809   C991.562378,174.910858 1003.438965,175.730667 1015.144165,178.560242   C1017.381653,179.101135 1019.632568,179.586975 1022.699707,180.285507   C1021.887939,178.554199 1021.541016,177.371933 1020.861084,176.430023   C1009.110474,160.152573 993.689880,149.797836 973.522217,146.982758   C957.068054,144.686005 940.740845,146.330963 924.977966,150.556564   C903.006775,156.446442 886.150208,170.467087 874.195923,189.417206   C866.347961,201.857788 860.222168,215.491760 854.310120,229.021683   C845.263611,249.724716 830.062256,264.677155 811.630371,276.670990   C798.812866,285.011505 785.476562,282.200256 772.468872,276.558167   C769.351746,275.206146 768.134827,272.440125 769.142029,269.083527   C770.165283,265.673370 772.740417,264.386780 776.111755,264.844666   C778.901855,265.223541 781.729370,265.653717 784.403809,266.495148   C792.180664,268.941956 798.983337,267.313904 805.622620,262.747528   C823.314880,250.579224 835.723328,234.491882 843.739807,214.577286   C850.510986,197.756317 857.935303,181.144867 870.790710,167.771301   C885.573059,152.393188 902.117188,139.699966 923.642761,135.596680   C946.121826,131.311630 968.724243,129.952484 990.642822,138.241302   C997.839661,140.962860 1004.291565,145.654327 1011.367310,149.655365  z"/>
</svg>