<svg xmlns="http://www.w3.org/2000/svg" xmlns:xlink="http://www.w3.org/1999/xlink" version="1.1" id="Layer_1" x="0px" y="0px" width="100%" viewBox="0 0 727 115" enable-background="new 0 0 727 115" xml:space="preserve">

<path fill="#F9F9F9" opacity="1.000000" stroke="none" d=" M217.322876,69.640030   C218.796982,72.050865 220.072891,74.154137 221.610535,76.688881   C227.542450,66.705742 233.403900,57.229740 238.826706,47.509037   C240.786133,43.996647 243.016037,42.442547 247.005432,42.929893   C249.626648,43.250107 252.318710,42.990414 255.405731,42.990414   C255.405731,62.560345 255.405731,81.944633 255.405731,101.670578   C250.566971,101.670578 245.532394,101.670578 240.116058,101.670578   C240.116058,92.159904 240.116058,82.756485 240.116058,73.353065   C239.805969,73.240005 239.495865,73.126945 239.185776,73.013885   C235.340439,79.456139 231.503189,85.903244 227.647217,92.339127   C224.455048,97.667068 218.479019,97.795677 215.245972,92.588783   C211.414703,86.418480 207.626968,80.221146 203.115494,72.890129   C203.115494,83.203278 203.115494,92.223923 203.115494,101.624985   C197.656982,101.624985 192.619553,101.624985 187.331314,101.624985   C187.331314,82.248154 187.331314,62.853565 187.331314,42.993893   C191.417099,42.993893 195.390305,42.767269 199.310486,43.123734   C200.585602,43.239677 202.099564,44.642853 202.860748,45.859795   C207.715500,53.621410 212.390518,61.495438 217.322876,69.640030  z"/>
<path fill="#F9F9F9" opacity="1.000000" stroke="none" d=" M413.912903,53.997643   C413.912903,58.257904 413.912903,62.026829 413.912903,67.076645   C420.795380,59.697609 426.985870,53.338367 432.822266,46.669266   C435.231964,43.915749 437.670197,42.625118 441.361023,42.913727   C445.592773,43.244640 449.870239,42.990456 455.091461,42.990456   C446.737854,52.133434 439.060608,60.536152 431.212219,69.126183   C439.573242,80.025749 447.716553,90.641479 456.434692,102.006554   C449.850708,102.006554 444.101349,102.170441 438.374542,101.883949   C437.048737,101.817627 435.518738,100.443268 434.563019,99.277161   C429.732910,93.383690 425.061432,87.360199 420.378174,81.437759   C411.287079,86.001953 414.536560,94.265968 413.784637,101.632141   C408.439697,101.632141 403.066162,101.632141 397.426025,101.632141   C397.426025,82.269852 397.426025,62.888092 397.426025,43.247967   C402.795197,43.247967 408.049225,43.247967 413.912903,43.247967   C413.912903,46.642315 413.912903,50.074306 413.912903,53.997643  z"/>
<path fill="#FBFBFB" opacity="1.000000" stroke="none" d=" M654.350220,55.720699   C667.260803,77.913376 653.600708,101.810936 628.250427,101.994087   C618.436401,102.064995 608.621521,102.005661 598.488831,102.005661   C598.488831,92.242386 598.488831,82.701340 598.488831,72.930359   C603.947510,72.930359 609.230469,72.930359 615.095947,72.930359   C615.095947,78.055672 615.095947,83.273712 615.095947,88.878441   C619.604614,88.878441 623.591125,89.257332 627.480713,88.804115   C637.330444,87.656433 642.578552,81.204773 642.087463,71.406776   C641.624817,62.177147 635.612854,56.316696 625.805664,56.059044   C616.825134,55.823112 607.833557,56.008976 598.508301,56.008976   C598.508301,51.767616 598.508301,47.708248 598.508301,42.518314   C611.325134,43.039326 624.250671,43.014503 637.044006,44.302673   C644.091370,45.012276 649.951904,49.380005 654.350220,55.720699  z"/>
<path fill="#FBFBFB" opacity="1.000000" stroke="none" d=" M387.596436,57.669243   C390.397980,69.002861 387.384521,77.692360 377.254272,83.590271   C381.334930,89.594452 385.307617,95.439796 389.768890,102.004044   C383.747009,102.004044 378.640656,102.142792 373.552429,101.900719   C372.367737,101.844360 370.952362,100.720413 370.151306,99.691879   C368.213257,97.203491 366.241364,94.641693 364.887421,91.819572   C362.322968,86.474236 358.461090,84.621429 352.400330,86.640617   C352.400330,91.345581 352.400330,96.431320 352.400330,101.757828   C346.551147,101.757828 341.129761,101.757828 335.438171,101.757828   C335.438171,92.274292 335.438171,82.881310 335.438171,72.993752   C344.009888,72.993752 352.455109,73.068367 360.898254,72.968979   C367.095734,72.896019 370.464935,70.614204 371.205536,66.326584   C372.238312,60.347778 368.927948,56.433769 362.059753,56.072166   C356.744049,55.792297 351.402191,56.008827 346.071960,56.006325   C342.604950,56.004696 339.137939,56.006016 335.169952,56.006016   C335.169952,53.533512 335.169952,51.422451 335.169952,49.311386   C335.169952,47.356647 335.169952,45.401909 335.169952,43.997574   C347.677338,43.997574 359.799652,43.323227 371.799438,44.244816   C379.265503,44.818214 384.746460,49.924900 387.596436,57.669243  z"/>
<path fill="#F9F9F9" opacity="1.000000" stroke="none" d=" M272.882721,102.008690   C269.133789,102.008690 265.855469,102.008690 262.005219,102.008690   C269.759857,84.437248 277.563446,67.540939 284.616058,50.336754   C287.002136,44.516079 289.949982,41.909000 296.205048,42.916805   C298.951874,43.359367 301.829285,42.991302 304.808411,42.991302   C313.442963,62.571968 322.006897,81.992439 330.833191,102.007889   C325.257629,102.007889 320.446960,102.266884 315.696198,101.847458   C314.301056,101.724281 312.474823,99.927711 311.867065,98.471893   C306.676605,86.038368 301.721283,73.506683 296.287262,59.988617   C294.247284,65.061417 292.532806,69.309959 290.829742,73.563087   C287.798553,81.133118 284.473816,88.604172 281.861847,96.316429   C280.340912,100.807182 278.093292,102.942581 272.882721,102.008690  z"/>
<path fill="#F0F0F0" opacity="1.000000" stroke="none" d=" M53.846741,57.845207   C67.032364,40.932938 84.245674,36.508938 103.993538,41.129688   C115.251862,43.763996 123.030846,51.086960 126.296532,62.483143   C126.722275,63.968838 125.960037,65.794952 125.748055,67.463394   C124.259590,67.028946 122.607315,66.873398 121.310921,66.111946   C115.597321,62.756027 109.681015,62.231380 103.607628,64.718842   C99.205856,66.521660 96.083420,69.467979 95.763435,74.687279   C95.443062,79.912956 97.476616,83.487465 102.056992,86.137238   C110.029778,90.749527 118.339302,89.564369 126.841530,88.619675   C137.570709,87.427536 148.351685,86.636497 159.128571,85.965599   C164.675995,85.620270 169.006821,88.649971 172.643021,92.481415   C175.254669,95.233330 176.098358,98.489227 173.476425,102.482933   C172.395432,100.377182 171.930893,97.762573 170.471786,96.963051   C166.687012,94.889168 162.415085,92.161858 158.426254,92.297737   C147.324326,92.675911 136.264404,94.347923 125.193710,95.561905   C117.202995,96.438148 109.312904,96.909309 101.695892,93.355301   C92.348579,88.993965 88.320686,81.732094 90.167923,71.990135   C91.604370,64.414612 99.665863,58.236168 108.705460,58.090584   C112.162041,58.034920 115.628624,58.600922 120.065269,58.963211   C115.591637,52.153252 110.052727,47.617805 102.697647,46.292973   C82.188004,42.598690 64.912796,49.283573 55.103050,68.651115   C53.000446,72.802307 51.093651,77.056236 49.198792,81.308350   C45.600143,89.383820 39.389240,95.065422 32.227150,99.830154   C27.138926,103.215202 21.729324,102.509689 16.478746,100.273010   C15.420609,99.822258 14.885113,98.144592 14.108651,97.032600   C15.280364,96.368294 16.655842,94.915901 17.593126,95.158257   C30.977186,98.618858 36.497643,88.866592 42.095783,80.181931   C46.571766,73.238129 49.836456,65.513527 53.846741,57.845207  z"/>
<path fill="#FCFCFC" opacity="1.000000" stroke="none" d=" M529.094788,81.999611   C529.094788,73.193886 529.094788,64.888039 529.094788,56.157967   C523.160278,56.157967 517.415710,56.157967 511.385681,56.157967   C511.385681,51.679783 511.385681,47.619179 511.385681,43.274452   C528.798767,43.274452 546.200745,43.274452 563.938721,43.274452   C563.938721,47.280476 563.938721,51.340565 563.938721,55.805122   C558.354431,55.805122 552.585266,55.805122 546.376709,55.805122   C546.376709,71.249794 546.376709,86.309715 546.376709,101.684799   C540.534607,101.684799 535.121277,101.684799 529.094788,101.684799   C529.094788,95.354515 529.094788,88.926994 529.094788,81.999611  z"/>
<path fill="#FBFBFB" opacity="1.000000" stroke="none" d=" M586.662720,43.406662   C587.032532,62.985291 587.032532,82.250336 587.032532,101.759720   C581.362305,101.759720 575.958801,101.759720 570.322388,101.759720   C570.322388,82.231323 570.322388,62.851830 570.322388,43.093079   C575.740601,43.093079 581.016724,43.093079 586.662720,43.406662  z"/>
<path fill="#FBFBFB" opacity="1.000000" stroke="none" d=" M466.129272,42.995193   C479.730804,42.995193 492.848785,42.995193 506.328552,42.995193   C506.328552,47.213032 506.328552,51.257828 506.328552,55.657986   C491.247650,55.657986 476.054535,55.657986 460.515564,55.657986   C460.515564,51.785282 460.515564,47.732399 460.515564,42.995193   C462.143250,42.995193 463.894470,42.995193 466.129272,42.995193  z"/>
<path fill="#FAFAFA" opacity="1.000000" stroke="none" d=" M460.169312,98.795868   C460.169037,95.375832 460.169037,92.427376 460.169037,89.257675   C475.796478,89.257675 490.985779,89.257675 506.434937,89.257675   C506.434937,93.467651 506.434937,97.522324 506.434937,102.003433   C491.659454,102.003433 477.088928,102.046265 462.520599,101.886787   C461.727478,101.878105 460.952820,100.179443 460.169312,98.795868  z"/>
<path fill="#FEFEFE" opacity="1.000000" stroke="none" d=" M685.001099,43.000401   C694.816040,43.000401 704.131104,43.000401 713.782104,43.000401   C713.782104,47.276680 713.782104,51.333530 713.782104,55.697815   C698.664551,55.697815 683.428467,55.697815 667.961609,55.697815   C667.961609,51.555172 667.961609,47.497589 667.961609,43.000401   C673.573914,43.000401 679.037537,43.000401 685.001099,43.000401  z"/>
<path fill="#FDFDFD" opacity="1.000000" stroke="none" d=" M707.909302,89.025215   C710.182068,89.025215 711.966614,89.025215 713.933533,89.025215   C713.933533,93.469933 713.933533,97.414337 713.933533,101.680984   C698.723511,101.680984 683.495361,101.680984 667.997253,101.680984   C667.997253,97.621155 667.997253,93.568565 667.997253,89.025215   C681.193176,89.025215 694.307129,89.025215 707.909302,89.025215  z"/>
<path fill="#FBFBFB" opacity="1.000000" stroke="none" d=" M473.013153,78.004799   C468.563141,78.004799 464.610779,78.004799 460.419800,78.004799   C460.419800,73.903404 460.419800,70.184898 460.419800,66.229538   C475.786407,66.229538 490.982666,66.229538 506.435364,66.229538   C506.435364,70.091660 506.435364,73.816666 506.435364,78.004799   C495.341064,78.004799 484.425934,78.004799 473.013153,78.004799  z"/>
<path fill="#FEFEFE" opacity="1.000000" stroke="none" d=" M667.732788,70.046371   C667.592590,67.426292 667.571411,65.872253 670.711060,65.918274   C683.984619,66.112846 697.262756,66.000603 710.539185,66.000526   C711.515747,66.000526 712.492249,66.000526 713.793823,66.000526   C713.793823,69.948746 713.793823,73.665054 713.793823,77.693054   C698.733948,77.693054 683.548340,77.693054 667.732727,77.693054   C667.732727,75.353325 667.732727,72.943016 667.732788,70.046371  z"/>
</svg>